<?xml version="1.0" encoding="UTF-8" standalone="no"?>
<!-- Created with Inkscape (http://www.inkscape.org/) -->

<svg
   version="1.1"
   id="svg1"
   width="1920"
   height="1026"
   viewBox="0 0 1920 1026"
   sodipodi:docname="backg_benefits.svg"
   inkscape:version="1.3 (0e150ed6c4, 2023-07-21)"
   xmlns:inkscape="http://www.inkscape.org/namespaces/inkscape"
   xmlns:sodipodi="http://sodipodi.sourceforge.net/DTD/sodipodi-0.dtd"
   xmlns="http://www.w3.org/2000/svg"
   xmlns:svg="http://www.w3.org/2000/svg">
  <defs
     id="defs1" />
  <sodipodi:namedview
     id="namedview1"
     pagecolor="#ffffff"
     bordercolor="#000000"
     borderopacity="0.25"
     inkscape:showpageshadow="2"
     inkscape:pageopacity="0.0"
     inkscape:pagecheckerboard="0"
     inkscape:deskcolor="#d1d1d1"
     inkscape:zoom="0.21360517"
     inkscape:cx="1830.48"
     inkscape:cy="0"
     inkscape:window-width="1920"
     inkscape:window-height="1009"
     inkscape:window-x="0"
     inkscape:window-y="0"
     inkscape:window-maximized="1"
     inkscape:current-layer="g1" />
  <g
     inkscape:groupmode="layer"
     inkscape:label="Image"
     id="g1">
    <g
       id="g8">
      <path
         id="rect3"
         style="fill:#0096ff;fill-rule:evenodd;stroke-width:6.16075;fill-opacity:1"
         d="m 101.9668,1 c 0.0324,1.0276296 0.0781,2.0523044 0.0781,3.0878906 0,53.1560774 -42.994311,96.1503894 -96.1503888,96.1503894 -1.9811566,0 -3.9433059,-0.0795 -5.8945312,-0.19726 v 9.10742 c 1.9524087,0.10816 3.915365,0.17383 5.8945312,0.17383 58.0659658,0 105.2363288,-47.168413 105.2363288,-105.2343794 0,-1.0356764 -0.0483,-2.0593525 -0.0781,-3.0878906 z" />
      <path
         id="path8"
         style="fill:#007979;fill-rule:evenodd;stroke-width:7.81346;fill-opacity:1"
         d="m 129.58704,0.470522 c 0.0411,1.303306 0.0991,2.602864 0.0991,3.9162604 0,67.4159346 -54.528139,121.9440676 -121.9440745,121.9440676 -2.5126294,0 -5.0011527,-0.10083 -7.4758217,-0.25018 v 11.55062 c 2.47617,0.13717 4.9657166,0.22046 7.4758217,0.22046 73.6429685,0 133.4674445,-59.821998 133.4674445,-133.4649676 0,-1.3135114 -0.0613,-2.6118024 -0.0991,-3.9162604 z" />
    </g>
    <g
       id="g10"
       transform="rotate(180,961.54018,512.27545)">
      <path
         id="path9"
         style="fill:#0096ff;fill-opacity:1;fill-rule:evenodd;stroke-width:6.16075"
         d="m 101.9668,1 c 0.0324,1.0276296 0.0781,2.0523044 0.0781,3.0878906 0,53.1560774 -42.994311,96.1503894 -96.1503888,96.1503894 -1.9811566,0 -3.9433059,-0.0795 -5.8945312,-0.19726 v 9.10742 c 1.9524087,0.10816 3.915365,0.17383 5.8945312,0.17383 58.0659658,0 105.2363288,-47.168413 105.2363288,-105.2343794 0,-1.0356764 -0.0483,-2.0593525 -0.0781,-3.0878906 z" />
      <path
         id="path10"
         style="fill:#007979;fill-opacity:1;fill-rule:evenodd;stroke-width:7.81346"
         d="m 129.58704,0.470522 c 0.0411,1.303306 0.0991,2.602864 0.0991,3.9162604 0,67.4159346 -54.528139,121.9440676 -121.9440745,121.9440676 -2.5126294,0 -5.0011527,-0.10083 -7.4758217,-0.25018 v 11.55062 c 2.47617,0.13717 4.9657166,0.22046 7.4758217,0.22046 73.6429685,0 133.4674445,-59.821998 133.4674445,-133.4649676 0,-1.3135114 -0.0613,-2.6118024 -0.0991,-3.9162604 z" />
    </g>
  </g>
</svg>
