<svg width="76" height="107" viewBox="0 0 76 107" fill="none" xmlns="http://www.w3.org/2000/svg">
<g id="Group">
<path id="Vector" d="M32.0642 0.403625C23.655 1.86569 16.9645 5.37464 11.0923 11.3691C4.25857 18.3243 0.575709 26.9505 0.0437398 37.1641C-0.365467 44.8712 2.08978 53.8943 7.69592 65.2357C12.5041 74.948 18.6422 84.5558 26.9696 95.4378C31.3481 101.161 35.2356 105.839 36.1358 106.445C37.0975 107.113 38.898 107.113 39.8596 106.445C41.2509 105.505 49.8238 94.6858 54.6729 87.8141C65.6192 72.2327 72.9645 57.4868 75.1128 46.7093C75.8698 42.9288 76.1154 40.1509 75.9517 37.1641C75.4197 26.9505 71.7368 18.3243 64.9031 11.3691C58.9287 5.24932 51.9517 1.67771 43.3992 0.320084C40.5348 -0.139427 34.9082 -0.0976486 32.0642 0.403625ZM43.2151 20.1206C47.3072 21.3738 50.6013 23.7131 53.1384 27.1803C57.4351 33.0285 58.1307 40.5059 54.9798 47.1061C53.0975 51.0537 50.1102 54.124 46.2842 56.0665C43.788 57.3406 41.7215 57.8627 38.7138 57.988C36.7701 58.0716 35.8494 58.0089 34.3148 57.6747C23.4299 55.3772 16.6985 44.0776 19.8084 33.3209C21.8136 26.4075 27.1946 21.3738 34.3353 19.7238C36.4836 19.2225 40.9235 19.4313 43.2151 20.1206Z" fill="#0058DD"/>
</g>
</svg>
