<?xml version="1.0" encoding="UTF-8" standalone="no"?>
<!-- Created with Inkscape (http://www.inkscape.org/) -->

<svg
   width="141"
   height="141"
   viewBox="0 0 37.30625 37.306249"
   version="1.1"
   id="svg1"
   inkscape:version="1.3.1 (1:1.3.1+202311172155+91b66b0783)"
   sodipodi:docname="linhas_direita.svg"
   xmlns:inkscape="http://www.inkscape.org/namespaces/inkscape"
   xmlns:sodipodi="http://sodipodi.sourceforge.net/DTD/sodipodi-0.dtd"
   xmlns="http://www.w3.org/2000/svg"
   xmlns:svg="http://www.w3.org/2000/svg">
  <sodipodi:namedview
     id="namedview1"
     pagecolor="#ffffff"
     bordercolor="#cccccc"
     borderopacity="1"
     inkscape:showpageshadow="0"
     inkscape:pageopacity="1"
     inkscape:pagecheckerboard="0"
     inkscape:deskcolor="#d1d1d1"
     inkscape:document-units="mm"
     inkscape:zoom="1.0280428"
     inkscape:cx="291.81665"
     inkscape:cy="-102.13583"
     inkscape:window-width="1842"
     inkscape:window-height="1016"
     inkscape:window-x="0"
     inkscape:window-y="0"
     inkscape:window-maximized="1"
     inkscape:current-layer="layer1" />
  <defs
     id="defs1" />
  <g
     inkscape:label="Camada 1"
     inkscape:groupmode="layer"
     id="layer1">
    <path
       id="rect2"
       style="fill:#009bd7;fill-opacity:1;stroke-width:1.44338"
       d="m 9.472256,37.020462 c -9.73e-4,-0.09507 -0.0072,-0.188922 -0.0072,-0.28422 0,-15.070211 12.200992,-27.271204 27.271203,-27.271204 0.113358,0 0.224935,0.0069 0.337964,0.0083 V 7.979373 c -0.113032,-0.0013 -0.224624,-0.0083 -0.337964,-0.0083 -15.877626,0 -28.765686,12.887542 -28.765686,28.76517 0,0.09532 0.0063,0.189119 0.0072,0.28422 z" />
    <path
       id="rect1"
       style="fill:#007979;fill-opacity:1;stroke-width:1.44338"
       d="m 1.291877,37.156371 c -0.0016,-0.140521 -0.01085,-0.279218 -0.01085,-0.420129 0,-19.589412 15.865789,-35.454684 35.4552,-35.454684 0.11335,0 0.224866,0.0072 0.337964,0.0083 V 0.0088 C 36.961086,0.0078 36.849574,0 36.736227,0 16.454728,-1.6999987e-5 -3.4e-5,16.454745 -3.4e-5,36.736242 c 0,0.140903 0.009268,0.2796 0.010852,0.420129 z" />
  </g>
</svg>
